<?xml version="1.0" standalone="no"?><!DOCTYPE svg PUBLIC "-//W3C//DTD SVG 1.1//EN" "http://www.w3.org/Graphics/SVG/1.1/DTD/svg11.dtd"><svg t="1528367704355" class="icon" style="" viewBox="0 0 1024 1024" version="1.1" xmlns="http://www.w3.org/2000/svg" p-id="3576" xmlns:xlink="http://www.w3.org/1999/xlink" width="200" height="200"><defs><style type="text/css"></style></defs><path d="M505.4 199.6l-336 291.2v380.8l67.2 67.2h179.2V692.4l22.4-44.8h112l44.8 67.2v224h201.6l67.2-67.2V490.8zM281.4 132.4h-67.2V334l67.2-67.2z" fill="#F7D856" p-id="3577"></path><path d="M958.8 450.1c-0.1-5.8-2.6-11.2-7-15l-427.4-367c-7.5-6.4-18.6-6.4-26.1 0L309.4 230.3v-102c0-11-8.9-19.5-20-19.5h-88.1c-11.1 0-19.9 8.5-19.9 19.5v211.9l-110.6 95c-4.4 3.8-7 9.3-7 15.2v105.5c0 7.8 4.6 14.9 11.7 18.2 2.7 1.2 5.5 1.8 8.3 1.8 4.7 0 9.4-1.7 13.1-4.8l53.3-45.8v324.1c0 60.7 49.4 110 110.1 110H765c60.7 0 110.1-49.4 110.1-110V525.6l51.6 44.3c6 5.1 14.4 6.3 21.5 3s11.7-10.5 11.6-18.3l-1-104.5zM221.3 148.7h48.1v115.9l-48.1 41.3V148.7z m349.5 770.6H436.6V699.2c0-11 9-20 20-20h94.1c11 0 20 9 20 20l0.1 220.1z m264.3-424.8v354.8c0 38.6-31.4 70-70.1 70H610.8V699.2c0-33.1-26.9-60-60.1-60h-94.1c-33.1 0-60.1 26.9-60.1 60v220.1H260.4c-38.6 0-70.1-31.4-70.1-70V494.5c0-1.2-0.1-2.3-0.3-3.4l322.4-276.9 323 277.3c-0.2 0.9-0.3 2-0.3 3zM525.4 172.6c-7.5-6.4-18.6-6.4-26.1 0L103.9 512.3v-52.7l407.4-349.8 407.5 349.9 0.5 51.2-393.9-338.3z" fill="#292C3C" p-id="3578"></path></svg>